<svg xmlns="http://www.w3.org/2000/svg" viewBox="0 0 485.45 344.9"><defs><style>.cls-1{fill:#002e45;}</style></defs><title>top-level-page-heading-bg</title><g id="Layer_2" data-name="Layer 2"><g id="Layer_1-2" data-name="Layer 1"><path class="cls-1" d="M380.29,0,333.52,177.71c-17.82-67.78-34.16-129-36.93-139.13-7.14-26-24.48-38.55-50-38.55-27.69,0-47.71,0-47.71,0h-.23L151.8,177.85,105,0,0,12.2S57.67,231.75,68.2,271.59c6.74,25.5,20.26,42.74,46,49.73,26.65,7.24,81.53,23.58,81.53,23.58l46.89-178.35c14.22,54,25.09,93.78,29.36,109.39,6.37,23.33,21.69,38.18,48.35,46,36.06,10.6,77.42,22.94,77.42,22.94L485.45,11.56Z"/></g></g></svg>